# xmcd
#
# Track frame offsets:
#	150
#	2150
#	21747
#	45625
#	48435
#	63717
#	80517
#	96869
#	97777
#	115332
#	138325
#	159150
#	178935
#	196665
#	218695
#	239230
#	271005
#
# Disc length: 3792 seconds
#
# Revision: 2
# Processed by: cddbd v1.5.2PL0 Copyright (c) Steve Scherf et al.
# Submitted via: audiograbber 1.83.01
#
DISCID=e90ece11
DTITLE=Ludacris - Disturbing Tha Peace
DYEAR=2005
DGENRE=Rap
TTITLE0=Ludacris - Intro
TTITLE1=Ludacris, Field Mob, Jamie Foxx - Georgia
TTITLE2=Ludacris, Norfolk - Put Ya Hands Up
TTITLE3=Ludacris, Miss Shyneka - Word On The Street
TTITLE4=Ludacris, Shawnna - Gettin' Some
TTITLE5=Ludacris, Smoke, Stat Quo - Come See Me
TTITLE6=Ludacris, Gangsta Boo, Lil' Fate, Rich Boy - Break A Nigga Off
TTITLE7=Ludacris - Skit
TTITLE8=Ludacris, Shareefa - I'll Be Around
TTITLE9=Ludacris - Sweet Revenge
TTITLE10=Ludacris, I-20, Lil' Fate - DTP For Life
TTITLE11=Ludacris, Playaz Circle - Two Miles An Hour (Remix)
TTITLE12=Ludacris, Bobby V, Field Mob, Lil' Fate, Smoke - Table Dance
TTITLE13=Ludacris, Field Mob, Perfect Harmany, Playaz Circle - That's My Shit
TTITLE14=Ludacris, I-20, Playaz Circle - You Ain't Got Enough
TTITLE15=Ludacris, Field Mob, I-20, Norfolk, Playaz Circle, Shareefa - Family A
TTITLE15=ffair
TTITLE16=Ludacris, Don Miguelo, Lazyeye, Small World - Blood In The Air
EXTD=www.RapMusicGuide.com
EXTT0=
EXTT1=
EXTT2=
EXTT3=
EXTT4=
EXTT5=
EXTT6=
EXTT7=
EXTT8=
EXTT9=
EXTT10=
EXTT11=
EXTT12=
EXTT13=
EXTT14=
EXTT15=
EXTT16=
PLAYORDER=
